<mxfile host="app.diagrams.net" modified="2022-03-07T00:51:02.643Z" agent="5.0 (Macintosh; Intel Mac OS X 10_15_7) AppleWebKit/537.36 (KHTML, like Gecko) Chrome/98.0.4758.109 Safari/537.36" etag="dQSgazuUVK7i-TTv9ZUG" version="16.6.3" type="github">
  <diagram id="oSBv7I8WQN_I8xE74gAm" name="Page-1">
    <mxGraphModel dx="1426" dy="714" grid="1" gridSize="10" guides="1" tooltips="1" connect="1" arrows="1" fold="1" page="1" pageScale="1" pageWidth="850" pageHeight="1100" math="0" shadow="0">
      <root>
        <mxCell id="0" />
        <mxCell id="1" parent="0" />
        <mxCell id="MwTU6Ee-RyGC1BdbysCh-8" value="" style="whiteSpace=wrap;html=1;aspect=fixed;strokeWidth=3;" vertex="1" parent="1">
          <mxGeometry x="338" y="720" width="175" height="175" as="geometry" />
        </mxCell>
        <mxCell id="MwTU6Ee-RyGC1BdbysCh-10" value="" style="whiteSpace=wrap;html=1;aspect=fixed;strokeWidth=3;" vertex="1" parent="1">
          <mxGeometry x="550" y="720" width="175" height="175" as="geometry" />
        </mxCell>
        <mxCell id="MwTU6Ee-RyGC1BdbysCh-11" value="" style="whiteSpace=wrap;html=1;aspect=fixed;strokeWidth=3;" vertex="1" parent="1">
          <mxGeometry x="130" y="720" width="175" height="175" as="geometry" />
        </mxCell>
        <mxCell id="MwTU6Ee-RyGC1BdbysCh-12" value="" style="whiteSpace=wrap;html=1;aspect=fixed;strokeWidth=3;" vertex="1" parent="1">
          <mxGeometry x="130" y="520" width="175" height="175" as="geometry" />
        </mxCell>
        <mxCell id="MwTU6Ee-RyGC1BdbysCh-13" value="" style="whiteSpace=wrap;html=1;aspect=fixed;strokeWidth=3;" vertex="1" parent="1">
          <mxGeometry x="338" y="520" width="175" height="175" as="geometry" />
        </mxCell>
        <mxCell id="MwTU6Ee-RyGC1BdbysCh-14" value="" style="whiteSpace=wrap;html=1;aspect=fixed;strokeWidth=3;" vertex="1" parent="1">
          <mxGeometry x="550" y="520" width="175" height="175" as="geometry" />
        </mxCell>
        <mxCell id="MwTU6Ee-RyGC1BdbysCh-15" value="" style="whiteSpace=wrap;html=1;aspect=fixed;strokeWidth=3;" vertex="1" parent="1">
          <mxGeometry x="338" y="320" width="175" height="175" as="geometry" />
        </mxCell>
        <mxCell id="MwTU6Ee-RyGC1BdbysCh-16" value="" style="whiteSpace=wrap;html=1;aspect=fixed;strokeWidth=3;" vertex="1" parent="1">
          <mxGeometry x="130" y="320" width="175" height="175" as="geometry" />
        </mxCell>
        <mxCell id="MwTU6Ee-RyGC1BdbysCh-17" value="" style="whiteSpace=wrap;html=1;aspect=fixed;strokeWidth=3;" vertex="1" parent="1">
          <mxGeometry x="550" y="320" width="175" height="175" as="geometry" />
        </mxCell>
        <mxCell id="MwTU6Ee-RyGC1BdbysCh-18" value="" style="shape=image;html=1;verticalAlign=top;verticalLabelPosition=bottom;labelBackgroundColor=#ffffff;imageAspect=0;aspect=fixed;image=https://cdn1.iconfinder.com/data/icons/unicons-line-vol-5/24/robot-128.png;strokeWidth=3;" vertex="1" parent="1">
          <mxGeometry x="573.5" y="743.5" width="128" height="128" as="geometry" />
        </mxCell>
        <mxCell id="MwTU6Ee-RyGC1BdbysCh-19" value="" style="ellipse;whiteSpace=wrap;html=1;aspect=fixed;strokeWidth=3;fillColor=#d5e8d4;strokeColor=#82b366;" vertex="1" parent="1">
          <mxGeometry x="385.5" y="367.5" width="80" height="80" as="geometry" />
        </mxCell>
        <mxCell id="MwTU6Ee-RyGC1BdbysCh-20" value="" style="shape=image;html=1;verticalAlign=top;verticalLabelPosition=bottom;labelBackgroundColor=#ffffff;imageAspect=0;aspect=fixed;image=https://cdn2.iconfinder.com/data/icons/nasty/60/trash_waste-128.png;strokeWidth=3;" vertex="1" parent="1">
          <mxGeometry x="589.25" y="559.25" width="96.5" height="96.5" as="geometry" />
        </mxCell>
        <mxCell id="MwTU6Ee-RyGC1BdbysCh-21" value="" style="shape=image;html=1;verticalAlign=top;verticalLabelPosition=bottom;labelBackgroundColor=#ffffff;imageAspect=0;aspect=fixed;image=https://cdn2.iconfinder.com/data/icons/nasty/60/trash_waste-128.png;strokeWidth=3;" vertex="1" parent="1">
          <mxGeometry x="589.25" y="359.25" width="96.5" height="96.5" as="geometry" />
        </mxCell>
        <mxCell id="MwTU6Ee-RyGC1BdbysCh-22" value="" style="whiteSpace=wrap;html=1;aspect=fixed;strokeWidth=3;fillColor=#f8cecc;strokeColor=#b85450;" vertex="1" parent="1">
          <mxGeometry x="385.5" y="567.5" width="80" height="80" as="geometry" />
        </mxCell>
      </root>
    </mxGraphModel>
  </diagram>
</mxfile>
